<?xml version="1.0" standalone="no"?>
<!DOCTYPE svg PUBLIC "-//W3C//DTD SVG 20010904//EN"
 "http://www.w3.org/TR/2001/REC-SVG-20010904/DTD/svg10.dtd">
<svg version="1.0" xmlns="http://www.w3.org/2000/svg"
 width="1000.000000pt" height="700.000000pt" viewBox="0 0 1000.000000 700.000000"
 preserveAspectRatio="xMidYMid meet">

<g transform="translate(0.000000,700.000000) scale(0.100000,-0.100000)"
fill="#000000" stroke="none">
<path d="M0 3500 l0 -3500 5000 0 5000 0 0 3500 0 3500 -5000 0 -5000 0 0
-3500z m7086 1322 c1135 -724 2064 -1319 2064 -1322 0 -10 -4135 -2644 -4150
-2644 -15 0 -4150 2634 -4150 2644 0 13 4146 2650 4159 2645 8 -3 943 -598
2077 -1323z"/>
<path d="M4775 5235 c-522 -74 -970 -358 -1248 -790 -53 -83 -131 -235 -120
-235 5 0 67 7 138 15 190 22 530 30 730 16 873 -60 1668 -365 2360 -906 52
-41 97 -70 100 -65 3 5 8 73 12 152 25 597 -247 1153 -735 1506 -187 134 -476
255 -712 297 -131 23 -399 28 -525 10z m812 -1165 l28 -1 -22 -18 c-15 -13
-20 -25 -16 -41 5 -20 4 -21 -17 -10 -16 9 -25 9 -33 1 -18 -18 -25 -13 -19
14 3 17 -1 27 -12 31 -24 9 -19 24 8 24 16 0 26 7 30 23 l7 22 9 -22 c7 -16
18 -23 37 -23z"/>
<path d="M3683 4193 l-43 -4 0 -48 c0 -93 25 -153 32 -78 3 28 7 32 36 35 29
3 35 0 45 -27 6 -17 15 -31 19 -31 11 0 10 13 -2 44 -6 16 -6 27 0 31 18 11
10 54 -12 69 -12 9 -25 15 -28 14 -3 -1 -24 -3 -47 -5z m70 -37 c8 -21 -14
-36 -55 -36 -34 0 -38 3 -38 25 0 23 4 25 44 25 28 0 46 -5 49 -14z"/>
<path d="M3860 4119 l0 -82 53 7 c61 8 87 32 87 82 0 50 -29 74 -90 74 l-50 0
0 -81z m104 45 c9 -8 16 -26 16 -39 0 -33 -26 -55 -66 -55 l-34 0 0 55 0 55
34 0 c19 0 42 -7 50 -16z"/>
<path d="M4076 4184 c-3 -9 -6 -42 -6 -74 0 -44 4 -59 16 -64 24 -9 124 -7
124 3 0 10 -48 21 -91 21 -24 0 -29 4 -29 25 0 23 3 25 50 25 28 0 50 5 50 10
0 6 -23 10 -51 10 -43 0 -50 3 -47 18 2 13 15 18 61 20 78 4 73 22 -7 22 -49
0 -65 -4 -70 -16z"/>
<path d="M4288 4118 c-3 -40 -3 -75 -1 -77 8 -10 16 11 21 55 5 52 16 43 27
-23 4 -24 11 -43 16 -43 5 0 21 24 34 53 l25 52 -4 -53 c-2 -29 1 -55 5 -58
10 -6 17 23 22 99 3 50 1 57 -15 57 -10 0 -21 -8 -25 -17 -3 -10 -13 -34 -21
-53 l-14 -35 -8 30 c-4 17 -11 42 -14 58 -4 17 -13 27 -25 27 -16 0 -19 -10
-23 -72z"/>
<path d="M3446 4148 c-22 -31 -20 -84 4 -108 20 -20 65 -26 86 -12 37 24 40
88 7 125 -23 25 -78 22 -97 -5z m82 -10 c17 -17 15 -73 -2 -88 -42 -34 -92 22
-68 75 13 27 49 34 70 13z"/>
<path d="M4640 4072 c-6 -36 -7 -68 -3 -72 13 -13 101 -22 107 -11 3 5 -16 12
-44 16 -50 7 -55 11 -44 38 4 11 16 14 45 10 52 -7 51 12 -1 21 -30 5 -38 10
-33 22 5 13 15 15 49 9 29 -4 44 -2 44 4 0 6 -6 11 -12 11 -7 1 -32 5 -55 9
l-41 8 -12 -65z"/>
<path d="M4986 4082 c-6 -10 -36 -127 -36 -141 0 -24 19 -9 25 19 6 27 9 29
33 23 58 -16 86 -10 96 20 8 21 6 31 -5 43 -18 18 -107 46 -113 36z m72 -37
c22 -6 31 -38 14 -49 -12 -7 -82 13 -82 24 0 22 14 40 29 36 9 -2 26 -7 39
-11z"/>
<path d="M5195 4018 c-32 -86 -44 -133 -36 -141 5 -5 13 4 19 22 13 36 9 34
51 20 27 -9 31 -16 31 -45 0 -19 5 -34 10 -34 6 0 10 14 10 30 0 17 9 39 21
51 29 29 21 61 -21 81 -57 26 -80 31 -85 16z m73 -33 c22 -6 31 -38 14 -49
-12 -7 -82 13 -82 24 0 22 14 40 29 36 9 -2 26 -7 39 -11z"/>
<path d="M3727 3989 c-136 -9 -375 -39 -403 -50 -13 -4 -24 -20 -28 -41 -72
-344 -56 -656 50 -967 283 -829 1141 -1318 2009 -1145 182 36 427 136 587 239
318 205 556 499 695 860 l35 90 -48 43 c-283 253 -699 511 -1080 671 -568 238
-1210 344 -1817 300z m-110 -149 l28 0 -22 -18 c-17 -13 -21 -23 -16 -42 6
-23 5 -24 -11 -11 -13 11 -22 11 -41 3 -24 -11 -25 -10 -19 12 4 18 0 28 -17
40 l-23 16 31 0 c23 0 32 5 37 23 l7 22 9 -22 c7 -16 18 -23 37 -23z m1894
-235 c11 6 12 5 2 -6 -7 -7 -13 -22 -13 -32 0 -16 -3 -17 -14 -8 -11 9 -16 9
-22 -1 -6 -9 -10 -6 -14 12 -8 32 19 63 36 41 7 -8 16 -11 25 -6z m-1139 -155
c22 -1 22 -1 5 -15 -14 -10 -17 -20 -11 -37 6 -21 5 -22 -10 -9 -14 12 -21 12
-38 2 -17 -11 -19 -10 -16 7 2 10 -3 26 -11 35 -12 15 -11 17 7 17 13 0 23 9
28 22 l7 23 8 -23 c5 -14 17 -22 31 -22z m638 -195 c0 -10 10 -15 27 -15 25 0
26 -1 8 -14 -12 -8 -16 -20 -13 -34 5 -19 3 -20 -13 -11 -13 6 -25 6 -38 0
-16 -9 -18 -8 -13 11 3 14 -1 26 -13 34 -18 13 -17 14 8 14 17 0 27 5 27 15 0
8 5 15 10 15 6 0 10 -7 10 -15z m-1093 -55 c12 0 13 -3 4 -13 -6 -8 -8 -16 -5
-19 3 -3 -3 -5 -13 -4 -22 1 -33 26 -19 42 6 7 13 8 14 3 2 -5 11 -9 19 -9z
m-148 -100 c25 -1 25 -1 7 -15 -13 -10 -17 -21 -12 -40 7 -26 6 -26 -15 -11
-19 13 -24 13 -46 -1 -23 -15 -23 -15 -14 10 9 22 7 29 -12 42 l-21 15 27 0
c21 0 28 6 34 28 l7 27 10 -27 c7 -21 17 -28 35 -28z m1473 -20 c21 -1 22 -1
5 -11 -14 -8 -17 -18 -12 -37 5 -22 4 -24 -9 -13 -9 7 -24 10 -37 6 -18 -6
-21 -4 -15 10 4 11 0 22 -11 31 -17 13 -17 13 3 14 14 0 24 8 28 23 l7 22 9
-22 c6 -14 18 -23 32 -23z m-389 0 c19 -1 20 -2 6 -13 -9 -7 -14 -17 -12 -23
2 -7 -6 -11 -20 -10 -27 1 -57 46 -31 46 8 0 18 8 22 18 6 16 7 16 10 0 2 -11
13 -18 25 -18z m-1301 -140 c21 -1 22 -1 5 -11 -14 -8 -17 -18 -12 -37 5 -22
4 -24 -9 -13 -9 7 -24 10 -37 6 -18 -6 -21 -4 -15 10 4 11 0 22 -11 31 -17 13
-17 13 3 14 14 0 24 8 28 23 l7 22 9 -22 c6 -14 18 -23 32 -23z m1381 -6 c-2
-7 -13 -14 -24 -17 -15 -4 -19 -2 -15 9 3 8 0 14 -6 14 -7 0 -3 6 7 14 20 15
46 1 38 -20z m-830 5 c4 -15 11 -20 21 -16 18 7 22 -8 5 -19 -6 -3 -9 -15 -6
-25 6 -21 -3 -25 -21 -7 -8 8 -15 8 -28 -3 -16 -13 -17 -12 -12 9 4 15 2 25
-8 29 -8 3 -14 9 -14 14 0 4 7 6 16 2 10 -4 17 1 21 16 3 11 9 21 13 21 4 0
10 -10 13 -21z m2165 -29 c24 0 24 -1 8 -19 -11 -13 -15 -27 -11 -40 7 -24 2
-26 -25 -9 -15 10 -22 10 -32 0 -19 -19 -28 -14 -18 12 7 20 5 27 -13 40 l-22
15 27 0 c21 1 29 7 35 29 l7 27 10 -27 c7 -20 17 -28 34 -28z m212 -10 c0 -5
7 -10 15 -10 8 0 15 -4 15 -10 0 -5 -5 -10 -11 -10 -6 0 -9 -9 -6 -20 4 -16 2
-18 -12 -10 -12 6 -22 5 -31 -3 -10 -10 -11 -7 -5 11 4 13 2 22 -4 22 -6 0
-11 5 -11 10 0 6 7 10 15 10 8 0 15 5 15 10 0 6 5 10 10 10 6 0 10 -4 10 -10z
m-146 -150 c20 -1 20 -1 3 -14 -11 -9 -15 -20 -11 -31 6 -14 3 -16 -15 -10
-13 4 -28 1 -37 -6 -13 -11 -14 -9 -9 13 5 19 2 29 -12 37 -16 9 -16 10 5 11
16 0 26 7 30 22 l5 22 10 -22 c6 -12 19 -22 31 -22z m-2267 0 c13 0 13 -3 3
-15 -7 -8 -9 -22 -6 -31 5 -14 4 -15 -9 -4 -12 10 -18 10 -32 -1 -15 -12 -16
-12 -10 5 5 12 1 23 -10 32 -17 12 -16 13 5 14 14 0 22 6 22 18 1 16 1 16 11
0 5 -10 17 -18 26 -18z m946 10 c4 -14 14 -20 34 -20 l28 0 -24 -19 c-18 -13
-22 -23 -16 -40 6 -21 5 -22 -14 -12 -16 9 -26 9 -42 0 -19 -10 -20 -9 -14 12
6 17 2 27 -16 40 l-24 19 28 0 c20 0 30 6 34 20 3 11 9 20 13 20 4 0 10 -9 13
-20z m1215 -150 c24 0 25 -1 7 -14 -12 -9 -16 -20 -12 -35 4 -18 3 -20 -9 -10
-11 9 -21 9 -38 1 -21 -9 -23 -8 -19 9 3 10 0 26 -7 34 -10 12 -9 15 8 15 12
0 23 9 27 23 l8 22 4 -22 c3 -17 11 -23 31 -23z m-1918 4 c0 -8 10 -14 25 -14
28 0 33 -15 9 -24 -12 -5 -15 -14 -10 -38 6 -31 6 -31 -14 -13 -16 14 -23 16
-32 7 -19 -19 -31 -14 -25 9 4 15 -1 28 -16 40 l-22 18 28 1 c20 0 30 6 34 20
6 22 23 18 23 -6z m1590 -64 c10 0 10 -3 0 -15 -6 -8 -9 -18 -6 -23 3 -5 -8
-9 -25 -9 -19 0 -28 5 -25 12 2 7 -1 18 -7 24 -8 8 -7 11 6 11 9 0 17 8 17 18
1 16 1 16 14 0 7 -10 19 -18 26 -18z m-487 -10 c16 0 18 -3 9 -12 -7 -7 -12
-21 -12 -32 0 -15 -3 -17 -12 -8 -8 8 -15 9 -25 1 -10 -9 -13 -7 -13 8 0 10
-5 24 -12 31 -9 9 -7 12 10 12 12 0 22 6 23 13 0 10 2 10 6 0 2 -7 14 -13 26
-13z m647 -10 c0 -5 7 -10 16 -10 13 0 14 -3 5 -14 -6 -7 -8 -22 -4 -32 6 -17
5 -17 -10 -5 -14 11 -20 11 -34 0 -15 -12 -16 -12 -10 5 4 10 2 25 -4 32 -9
11 -8 14 5 14 9 0 16 5 16 10 0 6 5 10 10 10 6 0 10 -4 10 -10z m-352 -40 c16
-1 16 -1 0 -11 -9 -5 -15 -15 -12 -22 2 -7 -5 -12 -21 -12 -17 0 -25 5 -25 18
0 9 -6 17 -12 18 -7 0 -3 4 10 9 12 5 22 15 22 22 0 8 5 6 11 -4 5 -10 18 -18
27 -18z m204 -107 c22 6 24 -8 2 -17 -10 -4 -13 -13 -9 -27 6 -18 5 -19 -13
-10 -14 7 -23 8 -27 1 -10 -16 -25 -12 -18 5 3 9 -2 24 -12 35 -16 18 -16 18
3 13 15 -3 22 1 28 19 l7 23 10 -23 c7 -16 17 -22 29 -19z m-350 -43 c21 -1
22 -1 5 -11 -14 -8 -17 -18 -12 -37 6 -23 5 -24 -10 -12 -14 11 -20 12 -37 1
-19 -12 -20 -11 -15 10 4 15 0 27 -11 35 -16 12 -15 13 5 14 13 0 24 8 29 22
l7 23 8 -23 c5 -14 17 -22 31 -22z m340 -168 c-3 -16 -8 -20 -15 -13 -7 7 -15
7 -24 0 -10 -9 -13 -7 -13 8 0 10 -6 25 -12 32 -11 10 -10 11 4 6 11 -5 20 -2
24 8 9 25 41 -12 36 -41z m-887 -31 c7 -12 -12 -24 -25 -16 -11 7 -4 25 10 25
5 0 11 -4 15 -9z"/>
<path d="M5409 3930 c-9 -5 -22 -23 -29 -40 -36 -86 82 -143 125 -59 35 67
-32 136 -96 99z m69 -22 c17 -17 15 -64 -4 -82 -32 -33 -74 -13 -74 35 0 47
49 76 78 47z"/>
<path d="M5595 3828 c-21 -25 -25 -38 -21 -61 9 -43 24 -57 62 -57 25 0 34 -4
35 -17 1 -21 49 75 49 98 0 9 -9 28 -21 43 -29 37 -70 35 -104 -6z m83 0 c7
-7 12 -24 12 -39 0 -23 -3 -26 -22 -22 -19 5 -21 3 -10 -8 18 -19 15 -29 -10
-29 -34 0 -50 15 -50 44 0 49 51 83 80 54z"/>
<path d="M5776 3720 c-28 -52 -33 -70 -22 -70 8 0 18 9 21 20 8 24 17 25 55 5
34 -18 33 -15 20 -49 -7 -20 -6 -26 4 -26 8 0 17 12 21 27 3 15 15 33 26 41
11 8 19 25 19 42 0 25 -7 33 -50 55 -27 14 -51 25 -53 25 -3 0 -21 -31 -41
-70z m92 20 c56 -35 28 -66 -34 -36 -30 14 -33 19 -24 36 13 25 17 25 58 0z"/>
<path d="M5968 3622 l-37 -67 59 -33 c63 -35 70 -37 70 -23 0 5 -21 21 -47 37
-27 15 -50 28 -52 30 -1 1 3 12 11 23 14 20 14 20 56 -4 29 -16 42 -20 42 -11
0 7 -16 21 -35 32 -35 19 -44 37 -25 49 6 4 31 -5 56 -20 43 -25 63 -28 50 -6
-6 10 -94 61 -105 61 -3 0 -23 -31 -43 -68z"/>
<path d="M6182 3548 c-18 -18 -15 -27 18 -65 34 -38 39 -63 12 -63 -21 0 -52
29 -52 48 0 7 -7 12 -15 12 -19 0 -19 -10 1 -38 24 -34 70 -55 94 -42 29 16
24 49 -12 87 -23 24 -29 36 -21 44 16 16 48 2 62 -27 6 -14 16 -22 21 -19 13
8 -3 39 -32 59 -27 19 -59 21 -76 4z"/>
<path d="M6360 3425 c-11 -13 -8 -23 18 -61 36 -51 39 -64 15 -64 -26 0 -40
12 -52 43 -11 28 -31 37 -31 13 0 -21 40 -66 67 -77 31 -11 63 4 63 31 0 11
-14 35 -31 55 -25 28 -29 39 -20 48 15 15 42 -1 60 -38 10 -20 15 -24 21 -14
17 26 -34 79 -76 79 -12 0 -27 -7 -34 -15z"/>
<path d="M6527 3288 c-41 -32 -40 -105 2 -127 30 -17 47 -13 80 15 56 47 34
124 -35 124 -17 0 -38 -6 -47 -12z m83 -22 c17 -22 8 -57 -21 -79 -34 -25 -69
-10 -69 30 0 51 60 84 90 49z"/>
</g>
</svg>
