<?xml version="1.0" encoding="iso-8859-1"?>
<!-- Uploaded to: SVG Repo, www.svgrepo.com, Generator: SVG Repo Mixer Tools -->
<svg version="1.1" id="Layer_1" xmlns="http://www.w3.org/2000/svg" xmlns:xlink="http://www.w3.org/1999/xlink" 
	 viewBox="0 0 502 502" xml:space="preserve">
<g>
	<rect x="10" y="96" style="fill:#009245;" width="482" height="310"/>
	<polygon style="fill:#F7931E;" points="447,251 251,132 55,251 251,370 	"/>
	<circle style="fill:#3FA9F5;" cx="251" cy="251" r="66"/>
	<g>
		<path d="M492,86H10C4.478,86,0,90.477,0,96v310c0,5.523,4.478,10,10,10h482c5.522,0,10-4.477,10-10V96
			C502,90.477,497.522,86,492,86z M482,396H20V106h462V396z"/>
		<path d="M49.811,259.548l196,119c1.594,0.968,3.392,1.452,5.189,1.452s3.596-0.484,5.189-1.452l196-119
			c2.987-1.813,4.811-5.054,4.811-8.548s-1.823-6.734-4.811-8.548l-196-119c-3.188-1.937-7.191-1.937-10.379,0l-196,119
			C46.823,244.266,45,247.506,45,251S46.823,257.734,49.811,259.548z M251,143.699L427.731,251L251,358.301L74.269,251L251,143.699z
			"/>
		<path d="M320,282.803c0.146-0.285,0.277-0.575,0.394-0.871C324.626,272.476,327,262.013,327,251c0-41.907-34.094-76-76-76
			c-28.946,0-54.157,16.271-66.988,40.143c-0.199,0.339-0.38,0.688-0.539,1.05C178.072,226.63,175,238.459,175,251
			c0,41.907,34.094,76,76,76C281.555,327,307.938,308.866,320,282.803z M307,251c0,1.718-0.09,3.415-0.242,5.094
			c-11.354-12.435-25.815-23.256-42.176-31.373c-16.775-8.323-34.558-13.321-51.698-14.696C222.889,200.712,236.287,195,251,195
			C281.879,195,307,220.122,307,251z M195,251c0-7.528,1.502-14.708,4.208-21.271c18.044-0.817,37.879,3.677,56.486,12.908
			c18.203,9.031,33.559,21.783,43.831,36.262C289.841,295.676,271.724,307,251,307C220.121,307,195,281.878,195,251z"/>
		<path d="M223,258c0-2.63-1.07-5.21-2.931-7.07C218.21,249.07,215.63,248,213,248s-5.21,1.07-7.07,2.93
			c-1.86,1.86-2.93,4.44-2.93,7.07s1.069,5.21,2.93,7.07S210.37,268,213,268s5.21-1.07,7.069-2.93C221.93,263.21,223,260.63,223,258
			z"/>
		<path d="M230,271c-2.63,0-5.21,1.07-7.07,2.93S220,278.37,220,281c0,2.64,1.069,5.21,2.93,7.07S227.37,291,230,291
			s5.21-1.07,7.069-2.93c1.86-1.86,2.931-4.44,2.931-7.07s-1.07-5.21-2.931-7.07C235.21,272.07,232.63,271,230,271z"/>
		<path d="M265,277c2.63,0,5.21-1.07,7.069-2.93c1.86-1.86,2.931-4.44,2.931-7.07s-1.07-5.21-2.931-7.07
			C270.21,258.07,267.63,257,265,257s-5.21,1.07-7.07,2.93c-1.86,1.86-2.93,4.44-2.93,7.07s1.069,5.21,2.93,7.07S262.37,277,265,277
			z"/>
		<path d="M273,224c2.63,0,5.21-1.07,7.069-2.93c1.86-1.86,2.931-4.44,2.931-7.07s-1.07-5.21-2.931-7.07
			C278.21,205.07,275.63,204,273,204s-5.21,1.07-7.07,2.93c-1.86,1.86-2.93,4.44-2.93,7.07s1.069,5.21,2.93,7.07S270.37,224,273,224
			z"/>
		<path d="M263.069,298.07c1.86-1.86,2.931-4.44,2.931-7.07s-1.07-5.21-2.931-7.07C261.21,282.07,258.63,281,256,281
			s-5.21,1.07-7.07,2.93S246,288.37,246,291s1.069,5.21,2.93,7.07S253.37,301,256,301S261.21,299.93,263.069,298.07z"/>
	</g>
</g>
</svg>