<?xml version="1.0" encoding="iso-8859-1"?>
<!-- Uploaded to: SVG Repo, www.svgrepo.com, Generator: SVG Repo Mixer Tools -->
<svg height="800px" width="800px" version="1.1" id="Layer_1" xmlns="http://www.w3.org/2000/svg" xmlns:xlink="http://www.w3.org/1999/xlink" 
	 viewBox="0 0 511.999 511.999" xml:space="preserve">
<polygon style="fill:#ECF0F1;" points="425.177,237.412 425.177,453.339 468.044,453.339 468.044,173.905 444.229,208.305 "/>
<path style="fill:#3EAF64;" d="M379.383,116.184c11.563-14.757,27.265-38.768,26.148-59.241c0,0-20.463,35.664-75.42,26.893
	c-49.702-7.931-54.932,10.438-55.478,19.212c-0.003-0.001-0.006,0.01-0.01,0.031c-1.296,8.314-7.931,14.725-16.346,14.725h-4.552
	c-8.416,0-15.05-6.41-16.349-14.725c-0.003-0.021-0.006-0.032-0.01-0.031c-0.546-8.775-5.776-27.143-55.478-19.212
	c-54.958,8.769-75.42-26.893-75.42-26.893c-1.117,20.472,14.586,44.483,26.147,59.241c-42.648-4.675-85.738-22.182-122.03-57.877
	c14.631,52.779,31.448,96.008,48.513,134.313c13.25,29.741,41.51,50.038,73.918,53.161c2.028,0.196,4.056,0.39,6.083,0.581
	c47.654,4.508,89.536-17.993,97.681-63.365c1.674-9.325,9.745-16.134,19.22-16.134s17.545,6.809,19.22,16.134
	c8.146,45.372,50.027,67.873,97.681,63.365c1.996-0.188,3.994-0.38,5.991-0.572c32.441-3.126,60.745-23.398,74.009-53.169
	c17.066-38.306,33.883-81.535,48.514-134.314C465.121,94.002,422.031,111.509,379.383,116.184z M143.678,195.692
	c-22.301-4.74-36.197-28.254-36.197-28.254s22.259-15.828,44.559-11.088c22.301,4.74,36.197,28.254,36.197,28.254
	S165.978,200.433,143.678,195.692z M368.32,195.692c-22.3,4.74-44.559-11.088-44.559-11.088s13.897-23.514,36.196-28.254
	c22.3-4.74,44.559,11.088,44.559,11.088S390.621,190.952,368.32,195.692z"/>
<g>
	<path style="fill:#231F20;" d="M506.783,49.187c-4.13-2.432-9.376-1.786-12.792,1.574c-25.76,25.335-57.121,42.633-91.74,50.783
		c8.293-14.148,14.667-30.158,13.849-45.177c-0.255-4.682-3.536-8.679-8.098-9.763c-4.563-1.085-9.27,0.921-11.603,4.989
		c-0.716,1.197-18.084,29.216-64.619,21.793c-26.828-4.283-45.359-1.966-56.651,7.077c-4.563,3.654-10.126,10.29-11.011,21.263
		c-0.52,2.698-2.524,5.496-5.84,5.496h-4.554c-3.315,0-5.321-2.8-5.843-5.498c-0.885-10.972-6.449-17.608-11.011-21.261
		c-11.293-9.042-29.824-11.358-56.651-7.077c-46.533,7.429-63.902-20.596-64.571-21.709c-2.333-4.069-7.065-6.112-11.627-5.031
		c-4.562,1.084-7.868,5.04-8.123,9.722c-0.818,15.019,5.556,31.028,13.849,45.177c-34.62-8.149-65.981-25.448-91.741-50.782
		c-3.417-3.361-8.666-4.005-12.792-1.574c-4.128,2.43-6.109,7.332-4.83,11.949c12.871,46.425,28.455,89.576,49.044,135.792
		c14.769,33.147,46.408,55.904,82.573,59.389l6.1,0.582c4.266,0.404,8.495,0.603,12.679,0.603
		c21.385-0.001,41.458-5.22,57.521-15.103c21.01-12.926,34.46-32.821,38.896-57.532c0.772-4.301,4.474-7.421,8.801-7.421
		s8.03,3.12,8.8,7.421c4.437,24.711,17.887,44.606,38.896,57.532c19.207,11.817,44.139,16.971,70.203,14.499l6.008-0.573
		c12.441-1.199,24.347-4.672,35.215-10.058v198.248c0,0,0.239,9.736,0.656,10.873c1.851,5.964,7.412,10.297,13.986,10.297h34.158
		c6.181,0,11.458-3.837,13.605-9.254c0.7-1.413,1.103-2.999,1.103-4.683V158.932c12.981-32.485,23.697-64.291,32.984-97.797
		C512.892,56.519,510.911,51.617,506.783,49.187z M436.29,232.217c8.33-7.176,15.51-15.722,21.169-25.372v237.673H436.29V232.217z
		 M459.077,150.836c-0.659,1.053-1.147,2.224-1.404,3.482c-4.524,11.205-9.321,22.502-14.442,33.997
		c-11.67,26.194-36.714,44.18-65.354,46.941l-5.975,0.571c-45.649,4.308-79.524-17.149-86.267-54.697
		c-2.584-14.399-15.048-24.85-29.637-24.85c-14.588,0-27.053,10.45-29.638,24.85c-6.739,37.548-40.604,59.01-86.264,54.697
		l-6.066-0.58c-28.587-2.755-53.595-20.738-65.265-46.932c-15.14-33.984-27.509-66.257-38.062-99.457
		c29.639,20.869,63.909,33.809,100.757,37.85c4.239,0.464,8.334-1.654,10.403-5.376c2.07-3.722,1.709-8.321-0.917-11.673
		c-6.134-7.828-11.163-15.357-15.001-22.398c13.562,6.679,32.428,11.051,57.609,7.031c27.63-4.407,37.237,0.417,40.082,2.696
		c2.026,1.622,2.972,3.633,3.164,6.722c0.029,0.468,0.089,0.931,0.178,1.386c2.289,13.522,13.478,23.298,26.745,23.298h4.554
		c13.241,0,24.409-9.734,26.736-23.27c0.093-0.464,0.155-0.935,0.184-1.412c0.193-3.09,1.138-5.1,3.164-6.722
		c2.846-2.278,12.451-7.103,40.082-2.696c25.193,4.02,44.048-0.351,57.61-7.033c-3.838,7.042-8.867,14.571-15.002,22.4
		c-2.626,3.352-2.987,7.952-0.917,11.673c2.069,3.723,6.168,5.836,10.403,5.376c36.848-4.039,71.118-16.981,100.757-37.849
		C474.682,109.662,467.353,130.105,459.077,150.836z"/>
	<path style="fill:#231F20;" d="M357.757,145.996c-26.541,5.642-42.444,32.098-43.109,33.222
		c-2.799,4.736-1.504,10.825,2.978,14.011c0.918,0.653,19.876,13.924,42.112,13.924c3.531,0,7.145-0.334,10.783-1.108
		c26.541-5.642,42.444-32.098,43.109-33.222c2.799-4.736,1.504-10.825-2.978-14.011
		C409.587,158.055,384.291,140.353,357.757,145.996z M388.688,170.795c-5.182,5.731-13.061,12.524-22.568,14.544
		c-9.537,2.026-19.478-0.966-26.529-4.092c5.182-5.732,13.06-12.524,22.568-14.544C371.689,164.675,381.636,167.667,388.688,170.795
		z"/>
	<path style="fill:#231F20;" d="M154.242,145.996c-26.542-5.642-51.83,12.06-52.894,12.816c-4.483,3.187-5.777,9.276-2.979,14.011
		c0.665,1.124,16.567,27.58,43.109,33.222c3.639,0.773,7.25,1.108,10.783,1.108c22.234,0,41.193-13.271,42.111-13.924
		c4.483-3.187,5.777-9.276,2.979-14.011C196.685,178.095,180.783,151.638,154.242,145.996z M145.879,185.339
		c-9.536-2.027-17.401-8.803-22.572-14.528c7.064-3.128,17.024-6.132,26.533-4.109c9.536,2.027,17.401,8.803,22.572,14.528
		C165.347,184.359,155.384,187.36,145.879,185.339z"/>
</g>
</svg>